PathFileType	4	(X/Y/Z)	65_1_52_p1_0-299_filt_butterworth.trc
DataRate	CameraRate	NumFrames	NumMarkers	Units	OrigDataRate	OrigDataStartFrame	OrigNumFrames
60.0	60.0	7	27	m	60.0	261	299
Frame#	Time	RHip			RKnee			RAnkle			RBigToe			RSmallToe			RHeel			LHip			LKnee			LAnkle			LBigToe			LSmallToe			LHeel			Neck			Head			Nose			RShoulder			RElbow			RWrist			RThumb			RIndex			RPinky			LShoulder			LElbow			LWrist			LThumb			LIndex			LPinky			
		X1	Y1	Z1	X2	Y2	Z2	X3	Y3	Z3	X4	Y4	Z4	X5	Y5	Z5	X6	Y6	Z6	X7	Y7	Z7	X8	Y8	Z8	X9	Y9	Z9	X10	Y10	Z10	X11	Y11	Z11	X12	Y12	Z12	X13	Y13	Z13	X14	Y14	Z14	X15	Y15	Z15	X16	Y16	Z16	X17	Y17	Z17	X18	Y18	Z18	X19	Y19	Z19	X20	Y20	Z20	X21	Y21	Z21	X22	Y22	Z22	X23	Y23	Z23	X24	Y24	Z24	X25	Y25	Z25	X26	Y26	Z26	X27	Y27	Z27	
261	4.35	0.43716240740023876	0.7022811777910994	0.2843138324166084	0.3919671309249738	0.894343703705214	0.7024486070897781	0.33344770726338896	1.0340063580275936	1.1130018322814563	0.27629456013525394	0.8289328816962072	1.2096048006171802	0.3625895155174815	0.8247194271423032	1.1974937090537636	0.29868652364109466	1.1574359790414956	1.1712764872310288	0.20063914753259487	0.7322820885650653	0.25634007705632356	0.15430990491511964	0.8952625643835275	0.6885692991943141	0.1153782342462639	1.0326276077185852	1.0906152452894011	0.12470043953007537	0.8073701830742328	1.165908661250575	0.06937487990556104	0.8686951841367336	1.1570258222301437	0.13492437936854246	1.0934053073965406	1.12301250785475	0.3814669194700945	0.4947803508655092	-0.375384766603209	0.40831135239624544	0.3805008040998845	-0.628158971585465	0.37887911878923736	0.3502327537529193	-0.45792625464566916	0.5445772495119428	0.5465142301848114	-0.2410618963200166	0.5686921184651742	0.6058294216606568	0.045301828400049614	0.5149242487696638	0.5619733797607567	0.3334691234745737	0.3899470135780342	0.5825295786368395	0.4252633158403255	0.39434094266252284	0.5873068984047767	0.4558386127758527	0.45888954312794306	0.64034319897775	0.46809570675737244	0.19419760057542806	0.5239326359344706	-0.2891208637912801	0.09381885914264694	0.6658185381143952	-0.02368837745408889	0.09458834442433392	0.5923461756918866	0.250832512104412	0.1716613078428636	0.5572947346541504	0.3455696872818245	0.14839839611932418	0.5266393367841187	0.3713246166140221	0.0984604086529884	0.5928167988572646	0.39451097933375784
262	4.366666666666666	0.43810930837544526	0.7067745357419593	0.28485135452919735	0.3912396429930322	0.8944553592731856	0.7028716896973479	0.333895094776287	1.0337842243672528	1.1130736548485558	0.2758362372094813	0.8258144239314006	1.2096812897143039	0.3626179258936457	0.8249519280844022	1.1974927832820557	0.29870596488965956	1.157406451275781	1.1713302210283585	0.20159920665253328	0.7337676511092719	0.25744194898996775	0.15393862282755297	0.8952254338100412	0.687558955534002	0.11541576919419566	1.0329526121548214	1.0892994124613773	0.1256832911687985	0.8037359379241787	1.1659623858229426	0.0693940321583413	0.8684046003877777	1.1573706726530522	0.1350350508817941	1.0937178891042907	1.1229679747298602	0.38249152539039566	0.49507236900769536	-0.37538370518634084	0.40827397710120494	0.38024915297114215	-0.6280851491780679	0.3789438919730019	0.3503452589910914	-0.4578793735005602	0.5456093313508652	0.5496762397040078	-0.24096594445674466	0.5715191029643611	0.6050964259475152	0.04491295308359747	0.5203994896321892	0.5664502169896596	0.33455880630014756	0.40349381236326903	0.5859433895640622	0.42963140649967163	0.4099948751287755	0.585194493569597	0.45660679615047245	0.4764579643541388	0.630519048909925	0.46814826286128514	0.19424741555557012	0.5238243197752193	-0.28907936592210187	0.0925149858237086	0.6672789117043101	-0.02777775532539173	0.07992045577184972	0.5937182340546172	0.24501358705443463	0.15056604314164534	0.5580708991475669	0.3450045979527727	0.12365042952462613	0.5321441704457756	0.373497224558885	0.08323386660440027	0.5880346111037246	0.3907585976724305
263	4.383333333333334	0.4381223209306198	0.7127788834043314	0.28593518507306775	0.3908096224973484	0.895567525945512	0.7061405619242116	0.3350880703129181	1.0335486165129404	1.1131564603297557	0.2750515695204085	0.8208187161553455	1.209126219713839	0.3626914613351897	0.8253311102110047	1.197475971811227	0.29875180855327466	1.1573719283357218	1.1713729397366393	0.20335489246463095	0.7397217795507095	0.25974840201009164	0.1539118011319517	0.8953337116561788	0.6863659361638645	0.11541330756945332	1.0332007171444306	1.0882971422393046	0.12693567111618664	0.7989773403251191	1.1660503975588183	0.06942287745195248	0.8678533038758414	1.1583211746681896	0.1351100984364312	1.0938178863668988	1.1229786519471114	0.38385780105332346	0.4954855968451654	-0.37538723353605624	0.4083361770679896	0.3802703795827957	-0.6280423739347096	0.37937316030211565	0.35157284594386073	-0.45811553357919477	0.5473399914305668	0.5551917740417252	-0.24081594587958755	0.574804295766475	0.6053138835124641	0.04509990438759173	0.5259462879924065	0.5736511572660815	0.33597083942485867	0.41566171482847974	0.5897712942602141	0.4332442363532056	0.4256362663237582	0.5816555200892964	0.45691992281081245	0.4913664025512069	0.6180540839367891	0.4697629571553275	0.19427869389205027	0.5235888429801298	-0.2889941894489816	0.09150148941359307	0.6681035521928864	-0.033083008659864625	0.06510918923979889	0.598143527685058	0.2382433574972707	0.1268244124309876	0.5561294581078625	0.34289997948562423	0.10077527317287001	0.5405666580955039	0.3771515954667161	0.06898658452711699	0.594849461297731	0.38843429157532766
264	4.4	0.4367325559587417	0.7175810297777043	0.2872496808316287	0.3908775275095115	0.8972059896998107	0.7112475508719923	0.33673146676194676	1.0336748911814895	1.1132842392274795	0.2744095435451878	0.8170019316744264	1.207831494214974	0.3627792230159759	0.8256705841453913	1.1974534190200472	0.2988055465076276	1.1573721585439418	1.171425205288352	0.20458900221276463	0.74762703668704	0.2625949791478917	0.15392897606138234	0.8955592103748292	0.6855345638336106	0.11536511189488775	1.0333817026249899	1.0879182078354335	0.12785780807779057	0.7954207917845961	1.1661588766643611	0.06943162194154698	0.8672591887003205	1.1596358414655248	0.1351450890450044	1.0939594256859728	1.1234742461852165	0.3849217567143438	0.4958264027145811	-0.37539185634029276	0.408733387127793	0.3814116199206774	-0.628310805693413	0.3803295099101749	0.3545377499352562	-0.4587915115395852	0.5493598253090757	0.5617452092306636	-0.24063038352893015	0.5783122796852073	0.6062375261173663	0.04528330514404769	0.5323553956001383	0.5832595590766471	0.33703918621886214	0.4248189274616526	0.5900320437968332	0.4358938213817451	0.43845622707554566	0.5751726423466936	0.4570186614271141	0.5014586120031053	0.6080433372737007	0.4717981718005613	0.1942914892901262	0.5232691779964871	-0.28887689228057484	0.08972256703812816	0.6675455184601049	-0.037688004820129774	0.05130461360375246	0.6031418701686473	0.232855883753421	0.10712630947203806	0.5524292600378606	0.34000377287405326	0.08420899242748117	0.5444923318967372	0.3805920966321173	0.052815226151423166	0.6112362603276009	0.3869070665692255
265	4.416666666666667	0.4347939816717128	0.7196474612179625	0.2881944589905553	0.3911091626141568	0.8985754570089431	0.7159575196060314	0.33805990135840785	1.0342670525155149	1.113432644842018	0.2741679986597164	0.8155105901679454	1.2062060539677124	0.362832906129537	0.8258591872266299	1.197430588620107	0.29883560635812567	1.1574201444398562	1.1714658845141417	0.2050089705843143	0.7534984155841423	0.26472294964000326	0.1539090320862543	0.8957944438468568	0.6852452669349324	0.11529594862773537	1.033554692516919	1.0879633755787905	0.1281992716997268	0.7940522490782593	1.1662568934068722	0.06940785284518149	0.8668460666377209	1.1606709359024472	0.13518102356797676	1.094569833330548	1.124802157445283	0.3853652173028669	0.49599038883569546	-0.3753963977553373	0.4096301925163597	0.38428758097890914	-0.6291281906805951	0.38152632423381705	0.35841827248512875	-0.4596945809568694	0.5511213420358669	0.567375482124931	-0.24046307548344023	0.5817406465336024	0.6071248581666823	0.04529190203382747	0.5392231382447276	0.5950486502106632	0.3373680666113931	0.4319706413856617	0.5837530376551658	0.43722201924377707	0.4483994204832946	0.5648702130270574	0.45693664530830574	0.5071643469160432	0.6026189042295643	0.47301856435525985	0.19427972160165666	0.5232800965232751	-0.2888288054777955	0.08603250353376858	0.6689435181255058	-0.0406810139768317	0.038884956359414254	0.6063336673880277	0.23048911989302784	0.09451577742612802	0.5486859950400397	0.3375500203244676	0.07227755289456439	0.5417885951852028	0.3819953534248988	0.035533322345817187	0.6265405394582483	0.3848512624857005
266	4.433333333333334	0.4333129737118959	0.7197275635823646	0.28850215622615755	0.39115613704123564	0.8990757799277141	0.7183134518565573	0.33865257606112364	1.0349331738519485	1.1135438087631437	0.2741539241769957	0.8154422656714435	1.204996636586635	0.36282803825629006	0.8258521324708985	1.197410209802924	0.2988385116548811	1.1574755386090252	1.171470410399506	0.2050909690018064	0.7556954612847618	0.26561627182935904	0.15388560793528935	0.8959407293104145	0.6852418161184101	0.11524165936214811	1.0337228241653948	1.0881303841870849	0.12818155171787404	0.7940412461795896	1.1663097641809739	0.06936812891630006	0.8666332784388938	1.1610867685414967	0.13526282222311123	1.0958032146024754	1.1266160932705036	0.38538437323509367	0.49602680354845197	-0.3754022336711934	0.41077742437693976	0.3880633282237276	-0.6302716077261216	0.3824185879863611	0.3613951087440429	-0.4603792393799597	0.5521840126614876	0.5706405984519152	-0.2403487029504013	0.5848891208399027	0.6075462311743614	0.04517049099116713	0.5464269112975568	0.6077424044181339	0.336894162841631	0.4388880640540556	0.5719630403059861	0.43737171201536407	0.45720847341686754	0.5555344567764261	0.45684957667683573	0.5112566827388406	0.6019752849901374	0.47317893331369243	0.19421832748264842	0.5245891349936151	-0.2890625430121869	0.08039080810914073	0.6773158846206215	-0.042825354797093595	0.028606669908629027	0.6074790125868937	0.23067845296382422	0.08773971201063857	0.5458943861594304	0.3364194988386771	0.05990801748775564	0.5395989793569718	0.381435609462268	0.020074938263473743	0.6342071024312854	0.3824658162794285
267	4.45	0.4325900770095663	0.7191380367819526	0.28841097398915577	0.391085114454012	0.8986151082189985	0.7180049875488089	0.3387133608044272	1.0353017220002974	1.1136073884778535	0.27415079787031116	0.8157427352794883	1.2045181654435748	0.3627715712513093	0.8256633152029883	1.19739500532839	0.29883671648790233	1.1574831318910304	1.1714679734860023	0.20515008101637944	0.75556360440482	0.26574515984744973	0.15387943654339423	0.8959884295752382	0.6852807787159294	0.11521925623723904	1.033859325017407	1.0882738116737154	0.12809410551725048	0.7943315607671881	1.1663107654123444	0.06934644415502611	0.8664844762474175	1.1610646563930385	0.1354030722728838	1.0972639089131813	1.1280580489471654	0.3852830893683313	0.49601623670317574	-0.3754097569779962	0.4116454443920695	0.39092624501427153	-0.6311782631513695	0.38289181164536407	0.36267276147477195	-0.4606448294930657	0.5524944110252538	0.5715626474104484	-0.2402752642653168	0.5874711906748312	0.6073327061276805	0.04503417453684362	0.5537654940594364	0.6188938552299426	0.3360178237212591	0.4466051881108516	0.559997027264209	0.43708919120863876	0.4663381796617223	0.5543288175686245	0.4571802301894021	0.5156785959522487	0.6048439081125065	0.47284606881981806	0.19408713131727431	0.5279368994223688	-0.2897394373133577	0.07366337093067717	0.6925265065547657	-0.045123619395441156	0.021411831334650723	0.6090885127399934	0.23152466252446385	0.08427084277482426	0.5446949478167925	0.3365737738943416	0.04416666111744319	0.5461065816635957	0.3799264999292025	0.008811352235392757	0.6360052889425025	0.38065828893469306
